<svg width="33" height="33" viewBox="0 0 33 33" fill="none" xmlns="http://www.w3.org/2000/svg">
<path d="M18.0192 4.52778C18.5627 4.85617 19.0124 5.32042 19.3244 5.87535C19.6365 6.43028 19.8003 7.05698 19.8 7.69444C19.8003 8.33191 19.6365 8.95861 19.3244 9.51354C19.0124 10.0685 18.5627 10.5327 18.0192 10.8611M24 23V22.3667C24 20.0022 24 18.82 23.5422 17.9164C23.1395 17.122 22.497 16.4761 21.7068 16.0713M10.875 11.3889C11.3576 11.3889 11.8355 11.2933 12.2814 11.1077C12.7272 10.922 13.1324 10.6499 13.4736 10.3068C13.8149 9.96375 14.0856 9.55648 14.2703 9.10825C14.4549 8.66002 14.55 8.17961 14.55 7.69444C14.55 7.20928 14.4549 6.72887 14.2703 6.28064C14.0856 5.83241 13.8149 5.42514 13.4736 5.08208C13.1324 4.73902 12.7272 4.46689 12.2814 4.28122C11.8355 4.09556 11.3576 4 10.875 4C9.90033 4 8.96558 4.38924 8.27638 5.08208C7.58719 5.77492 7.2 6.71462 7.2 7.69444C7.2 8.67427 7.58719 9.61397 8.27638 10.3068C8.96558 10.9997 9.90033 11.3889 10.875 11.3889ZM3 22.3667V23H18.75V22.3667C18.75 20.0022 18.75 18.82 18.2922 17.9164C17.8895 17.122 17.247 16.4761 16.4568 16.0713C15.558 15.6111 14.382 15.6111 12.03 15.6111H9.72C7.368 15.6111 6.192 15.6111 5.2932 16.0713C4.50295 16.4761 3.86046 17.122 3.4578 17.9164C3 18.82 3 20.0022 3 22.3667Z" stroke="#EFF3F4" stroke-width="3" stroke-linecap="round" stroke-linejoin="round"/>
</svg>
