<svg width="11" height="20" viewBox="0 0 11 20" fill="none" xmlns="http://www.w3.org/2000/svg">
<path d="M2.41512 10L10.7068 18.291C10.8945 18.4787 11 18.7333 11 18.9989C11 19.2644 10.8945 19.519 10.7068 19.7068C10.5191 19.8945 10.2645 20 9.99901 20C9.73354 20 9.47893 19.8945 9.29121 19.7068L0.293706 10.7079C0.200605 10.615 0.12674 10.5047 0.0763414 10.3832C0.0259425 10.2617 0 10.1315 0 10C0 9.86848 0.0259425 9.73826 0.0763414 9.61678C0.12674 9.49531 0.200605 9.38497 0.293706 9.29209L9.29121 0.293226C9.47893 0.105476 9.73354 0 9.99901 0C10.2645 0 10.5191 0.105476 10.7068 0.293226C10.8945 0.480976 11 0.735619 11 1.00114C11 1.26665 10.8945 1.5213 10.7068 1.70905L2.41512 10Z" fill="#EFF3F4"/>
</svg>
